<svg xmlns="http://www.w3.org/2000/svg" xmlns:xlink="http://www.w3.org/1999/xlink" width="20" height="20" viewBox="0 0 20 20">
  <defs>
    <clipPath id="clip-path">
      <rect id="Rectangle_72" data-name="Rectangle 72" width="20" height="20" transform="translate(407 629)" fill="#fff"/>
    </clipPath>
  </defs>
  <g id="Mask_Group_8" data-name="Mask Group 8" transform="translate(-407 -629)" opacity="0.5" clip-path="url(#clip-path)">
    <g id="Group_39" data-name="Group 39" transform="translate(-11.5 8.75)">
      <g id="mic" transform="translate(411 615.75)">
        <path id="Path_34" data-name="Path 34" d="M23.5,42.038H17.278a.769.769,0,1,1,0-1.538H23.5a.769.769,0,1,1,0,1.538Z" transform="translate(-2.889 -17.539)" fill="#37487f"/>
        <path id="Path_35" data-name="Path 35" d="M17.5,27.231A6.99,6.99,0,0,1,12.556,25.2a6.836,6.836,0,0,1-2.056-4.89V18.769a.778.778,0,0,1,1.556,0v1.538a5.445,5.445,0,0,0,10.889,0V18.769a.778.778,0,0,1,1.556,0v1.538a6.836,6.836,0,0,1-2.056,4.89A6.99,6.99,0,0,1,17.5,27.231Z" transform="translate(0 -6.577)" fill="#37487f"/>
        <path id="Path_36" data-name="Path 36" d="M23.278,38.385a.774.774,0,0,1-.778-.769V33.769a.778.778,0,0,1,1.556,0v3.846A.774.774,0,0,1,23.278,38.385Z" transform="translate(-5.778 -13.885)" fill="#37487f"/>
        <path id="Path_37" data-name="Path 37" d="M20.389,17.577A3.924,3.924,0,0,1,16.5,13.683V8.346a3.81,3.81,0,0,1,1.135-2.724A3.9,3.9,0,0,1,20.389,4.5a3.827,3.827,0,0,1,3.889,3.846v5.337A3.9,3.9,0,0,1,20.389,17.577Z" transform="translate(-2.889 0)" fill="#37487f"/>
      </g>
    </g>
  </g>
</svg>
