<svg xmlns="http://www.w3.org/2000/svg" width="44" height="40" viewBox="0 0 44 40">
  <g id="Group_18" data-name="Group 18" transform="translate(-18 -20)">
    <g id="Artboard_5" data-name="Artboard 5" transform="translate(-20.97 20)">
      <g id="Group_17" data-name="Group 17" transform="translate(38.97 2.584)">
        <path id="Path_19" data-name="Path 19" d="M104.352,26.32c-9.567,0-17.322,7.32-17.322,16.349s7.755,16.349,17.322,16.349,17.322-7.32,17.322-16.349S113.918,26.32,104.352,26.32Zm9.357,20.73H94.995a4.32,4.32,0,0,1-4.288-4.326h0A4.319,4.319,0,0,1,94.995,38.4h18.715A4.32,4.32,0,0,1,118,42.725h0A4.319,4.319,0,0,1,113.709,47.05Z" transform="translate(-82.352 -26.32)" fill="#6574f9"/>
        <g id="Group_16" data-name="Group 16" transform="translate(10.971 14.27)">
          <ellipse id="Ellipse_18" data-name="Ellipse 18" cx="2.117" cy="2.135" rx="2.117" ry="2.135" fill="#6574f9"/>
          <ellipse id="Ellipse_19" data-name="Ellipse 19" cx="2.117" cy="2.135" rx="2.117" ry="2.135" transform="translate(17.823)" fill="#6574f9"/>
        </g>
        <path id="Path_20" data-name="Path 20" d="M235.755,284.447a3.842,3.842,0,0,1-2.978-1.414.567.567,0,0,1,.074-.791.554.554,0,0,1,.784.075,2.736,2.736,0,0,0,4.24,0,.553.553,0,0,1,.784-.075.565.565,0,0,1,.074.791A3.84,3.84,0,0,1,235.755,284.447Z" transform="translate(-213.799 -257)" fill="#6574f9"/>
        <path id="Path_21" data-name="Path 21" d="M376.419,124.648a6.7,6.7,0,0,0-8.859,1.537,4.33,4.33,0,0,1,3.664,4.279h0a4.331,4.331,0,0,1-3.587,4.267,6.706,6.706,0,0,0,7.472,2.079,6.6,6.6,0,0,0,1.309-.642,6.83,6.83,0,0,0,0-11.52Z" transform="translate(-335.578 -114.059)" fill="#6574f9"/>
        <path id="Path_22" data-name="Path 22" d="M47.324,130.454h0a4.329,4.329,0,0,1,3.664-4.279A6.7,6.7,0,0,0,43.438,124a6.6,6.6,0,0,0-1.309.642,6.83,6.83,0,0,0,0,11.52,6.7,6.7,0,0,0,8.781-1.437,4.331,4.331,0,0,1-3.587-4.267Z" transform="translate(-38.97 -114.05)" fill="#6574f9"/>
      </g>
      <path id="Path_23" data-name="Path 23" d="M109.1,13.173a6.705,6.705,0,0,0-1.309-.642,19.1,19.1,0,0,0-35.064,0,6.6,6.6,0,0,0-1.309.642q.273-.82.627-1.619a18.863,18.863,0,0,1,4.243-6.018,20.4,20.4,0,0,1,27.943,0,18.832,18.832,0,0,1,4.243,6.018q.353.8.627,1.619Z" transform="translate(-29.292 0)" fill="#6574f9"/>
      <path id="Path_24" data-name="Path 24" d="M84.319,293.424l-.617.73.663-.783a19.1,19.1,0,0,0,9.5,6.076,2.11,2.11,0,0,1,1.763-.877,1.762,1.762,0,1,1-2.026,1.856,19.984,19.984,0,0,1-9.9-6.27C80.5,297.942,85.813,291.655,84.319,293.424Z" transform="translate(-37.527 -262.054)" fill="#6574f9"/>
      <path id="Path_25" data-name="Path 25" d="M75.3,250.362a17.964,17.964,0,0,1-3.565-6.691,6.65,6.65,0,0,1-1.233-.781q.184.845.449,1.678a19.77,19.77,0,0,0,3.687,6.579" transform="translate(-28.461 -219.044)" fill="#6574f9"/>
    </g>
  </g>
</svg>
