<svg xmlns="http://www.w3.org/2000/svg" width="36" height="36" viewBox="0 0 36 36">
  <g id="user-avatar-filled-alt" transform="translate(-3 -3)" opacity="0.8">
    <path id="Path_1" data-name="Path 1" d="M24,12a7.5,7.5,0,1,0,7.5,7.5A7.5,7.5,0,0,0,24,12Z" transform="translate(-3 -2)" fill="#fff"/>
    <path id="Path_2" data-name="Path 2" d="M21,3A18,18,0,1,0,39,21,18,18,0,0,0,21,3ZM31.275,32.476a6.431,6.431,0,0,0-6.418-6.333H17.143a6.431,6.431,0,0,0-6.418,6.333,15.429,15.429,0,1,1,20.552,0Z" fill="#fff"/>
  </g>
</svg>
